<?xml version="1.0" encoding="UTF-8" standalone="no"?>
<!DOCTYPE svg PUBLIC "-//W3C//DTD SVG 1.1//EN" "http://www.w3.org/Graphics/SVG/1.1/DTD/svg11.dtd">
<svg width="100%" height="100%" viewBox="0 0 2481 2481" version="1.1" xmlns="http://www.w3.org/2000/svg" xmlns:xlink="http://www.w3.org/1999/xlink" xml:space="preserve" xmlns:serif="http://www.serif.com/" style="fill-rule:evenodd;clip-rule:evenodd;stroke-linecap:round;stroke-linejoin:round;stroke-miterlimit:1.5;">
    <g transform="matrix(2.265128,0,0,1.847633,-702.189624,-622.652367)">
        <rect x="310" y="337" width="1095" height="1352" style="fill:rgb(75,153,255);"/>
    </g>
    <path d="M0,744L355,724L673,613L919,450L1074,297L1537,500L1364,570L1240.157,710L1182.157,838L650,923L460,1051L176,953L92,1009L153,1320L184,1432.5L-58,1415L-177,707L0,744Z" style="fill:rgb(102,102,204);"/>
    <path d="M1594,946L1709,1293L2232,1366.342L2575,1439.684L2578,743.359L2323,660L1965,657L1618,743.359L1537,796L1594,946Z" style="fill:rgb(102,102,204);"/>
    <g transform="matrix(1,0,0,1,0,2480.314961)">
        <path d="M-6.982,768.078C-29.653,764.224 -44.931,742.689 -41.078,720.018C-37.224,697.347 -15.689,682.069 6.982,685.922C224.654,722.92 576.513,652.223 823.33,476.58C983.041,362.925 1098.838,204.52 1098.838,0C1098.838,-22.996 1117.508,-41.667 1140.504,-41.667C1163.501,-41.667 1182.171,-22.996 1182.171,0C1182.171,232.874 1053.499,415.065 871.647,544.476C606.124,733.431 227.188,807.88 -6.982,768.078Z" style="fill:rgb(51,0,153);"/>
    </g>
    <g transform="matrix(1,0,0,1,34,32)">
        <circle cx="737.5" cy="1552.5" r="38.5" style="fill:rgb(51,0,153);stroke:rgb(51,0,153);stroke-width:83.33px;"/>
    </g>
    <g transform="matrix(1,0,0,1,541.15748,-120)">
        <circle cx="737.5" cy="1552.5" r="38.5" style="fill:rgb(51,0,153);stroke:rgb(51,0,153);stroke-width:83.33px;"/>
    </g>
    <g transform="matrix(1.506494,0,0,1.506494,71.118519,-618.831169)">
        <circle cx="737.5" cy="1552.5" r="38.5" style="fill:rgb(51,0,153);stroke:rgb(51,0,153);stroke-width:55.32px;"/>
    </g>
    <g transform="matrix(1,0,0,1,-2480.314961,0)">
        <path d="M1578.98,830.757C1559.797,843.44 1533.926,838.163 1521.243,818.98C1508.56,799.797 1513.837,773.926 1533.02,761.243C1686.839,659.545 2051.512,610.983 2487.377,685.936C2510.04,689.833 2525.276,711.398 2521.379,734.062C2517.481,756.725 2495.917,771.961 2473.253,768.064C2065.096,697.875 1723.021,735.524 1578.98,830.757Z" style="fill:rgb(51,0,153);"/>
    </g>
    <g transform="matrix(1,0,0,1,-2480.314961,0)">
        <path d="M1710,1293C2009.442,1300.537 2556.502,1451.029 2666.315,1439" style="fill:none;stroke:rgb(51,0,153);stroke-width:83.33px;"/>
    </g>
    <g transform="matrix(1,0,0,1,-2480.314961,0)">
        <path d="M1816.628,105.551C1803.629,86.58 1808.478,60.626 1827.449,47.628C1846.42,34.629 1872.374,39.478 1885.372,58.449C1940.403,138.767 2044.335,222.311 2163,265.131C2277.877,306.584 2407.412,309.647 2518.743,228.35C2537.315,214.788 2563.403,218.856 2576.965,237.428C2590.527,256 2586.459,282.088 2567.887,295.65C2432.223,394.717 2274.701,394.03 2134.715,343.517C1998.518,294.371 1879.789,197.735 1816.628,105.551Z" style="fill:rgb(51,0,153);"/>
    </g>
    <g transform="matrix(1,0,0,1,-2480.314961,0)">
        <path d="M2491.229,1689.353C2491.269,1690.021 2491.496,1693.855 2488.48,1697.251C2487.551,1698.297 2486.406,1699.189 2485.149,1699.802C2483.854,1700.433 2482.386,1700.635 2480.972,1700.914C2480.289,1701.048 2479.582,1700.996 2478.887,1701.037C2475.245,1701.252 2475.252,1701.302 2472.821,1701.567C2442.515,1704.869 2404.989,1708.893 2402.17,1709.159C2339.58,1715.065 2337.884,1715.212 2332.29,1715.695C2330.777,1715.826 2296.821,1718.635 2296.039,1718.695C2295.167,1718.761 2263.223,1721.047 2262.206,1721.115C2260.727,1721.215 2216.119,1723.939 2209.992,1724.3C2204.009,1724.652 2153.062,1727.513 2147.31,1727.818C2132.784,1728.59 2034.351,1733.627 1994.026,1735.358C1896.141,1739.559 1852.718,1740.915 1840.427,1741.299C1811.824,1742.193 1793.938,1742.737 1751.071,1743.597C1746.464,1743.69 1721.719,1743.948 1711.08,1743.885C1681.953,1743.711 1681.957,1743.719 1652.837,1742.96C1615.837,1741.995 1608.736,1741.494 1607.569,1741.438C1601.813,1741.16 1562.035,1739.242 1535.669,1736.928C1533.483,1736.737 1533.441,1736.821 1531.446,1735.907C1530.847,1735.632 1527.389,1734.048 1525.804,1729.904C1525.561,1729.269 1524.167,1725.626 1526.067,1721.409C1526.337,1720.808 1527.906,1717.326 1532.069,1715.767C1532.516,1715.599 1533.75,1715.137 1537.981,1715.023C1567.471,1714.23 1584.451,1713.345 1617.737,1711.412L1714.519,1706.178C1716.106,1706.093 1723.05,1705.828 1745.464,1704.795C1748.497,1704.655 1762.798,1704.191 1796.102,1702.842L1922.442,1697.865L2256.697,1683.318C2262.56,1683.066 2262.559,1683.096 2289.651,1682.161C2296.108,1681.938 2327.036,1681.158 2335.514,1681.02C2380.169,1680.294 2401.297,1679.892 2401.862,1679.888L2471.521,1679.394C2473.901,1679.374 2473.899,1679.427 2477.597,1679.209C2479.652,1679.087 2479.652,1679.082 2479.678,1679.085C2481.104,1679.288 2482.596,1679.222 2483.957,1679.696C2484.579,1679.913 2488.163,1681.162 2490.117,1685.166C2491.079,1687.139 2491.099,1687.162 2491.229,1689.353Z" style="fill:rgb(51,0,153);"/>
    </g>
    <path d="M-6.982,768.078C-29.653,764.224 -44.931,742.689 -41.078,720.018C-37.224,697.347 -15.689,682.069 6.982,685.922C224.649,722.92 576.323,652.225 822.994,476.586C982.615,362.931 1098.333,204.522 1098.333,0C1098.333,-22.996 1117.004,-41.667 1140,-41.667C1162.996,-41.667 1181.667,-22.996 1181.667,0C1181.667,232.873 1053.077,415.059 871.33,544.47C605.95,733.429 227.193,807.881 -6.982,768.078Z" style="fill:rgb(51,0,153);"/>
    <path d="M142.869,999.553C142.959,1018.693 143.67,1045.086 146.02,1076.961C146.34,1081.314 147.514,1100.75 150.407,1127.859C150.976,1133.195 152.39,1148.414 155.364,1170.822C155.891,1174.793 156.437,1181.062 158.611,1197.783C158.794,1199.191 159.727,1208.887 161.578,1223.668C162.313,1229.534 163.907,1248.214 168.268,1277.957C168.923,1282.425 171.755,1308.812 178.394,1344.891C178.43,1345.089 178.82,1347.204 178.833,1347.362C178.963,1348.854 179.214,1350.341 179.221,1351.839C179.253,1358.515 176.69,1363.479 176.217,1364.397C173.18,1370.28 168.999,1372.751 168.176,1373.237C168.161,1373.246 164.646,1374.833 164.638,1374.835C163.371,1375.084 162.124,1375.47 160.837,1375.579C159.884,1375.66 155.03,1376.072 149.148,1373.035C148.231,1372.562 143.266,1369.999 139.439,1364.534C139.166,1364.144 137.955,1362.414 136.545,1359.335C121.922,1327.397 110.067,1296.331 108.815,1292.754C100.833,1269.934 95.315,1252.017 91.692,1239.939C90.875,1237.215 84.937,1214.374 84.173,1210.885C82.427,1202.905 80.766,1195.054 78.724,1184.75C78.374,1182.98 73.608,1155.364 70.852,1133.176C66.912,1101.455 65.417,1080.762 65.087,1076.192C60.475,1012.316 62.116,969.203 62.488,961.515C62.659,957.986 62.622,957.977 63.362,954.52C63.886,952.068 66.916,937.903 81.258,928.789C83.067,927.639 84.973,926.63 86.941,925.781C87.607,925.494 90.602,924.201 95.603,923.103C103.924,921.276 152.022,911.954 233.198,929.165C236.664,929.9 266.114,936.182 299.963,948.043C315.827,953.601 328.6,958.743 335.786,961.698C338.503,962.815 357.577,971.338 366.411,975.897C377.844,981.797 390.018,988.466 394.446,991.087C415.034,1003.272 432.446,1014.701 445.184,1023.363C446.182,1024.042 467.41,1039.072 495.201,1061.619C496.664,1062.805 497.091,1063.207 497.937,1063.749C498.171,1063.899 500.834,1065.607 500.863,1065.631C502.01,1066.548 503.253,1067.356 504.304,1068.382C505.25,1069.306 510.651,1074.582 510.841,1083.568C510.87,1084.921 511.036,1092.731 504.619,1099.302C503.695,1100.249 498.423,1105.647 489.434,1105.838C485.059,1105.932 481.711,1104.626 481.079,1104.379C478.235,1103.27 478.306,1103.12 475.738,1101.468C474.331,1100.563 474.37,1100.499 472.865,1099.773C441.286,1084.531 420.74,1076.375 416.526,1074.496C386.607,1061.163 366.853,1054.151 360.845,1051.792C345.854,1045.907 338.449,1043.46 332.532,1041.232C319.461,1036.31 315.6,1035.174 305.137,1031.448C304.372,1031.176 285.944,1024.429 259.723,1017.089C258.976,1016.88 237.463,1010.617 209.544,1005.586C181.25,1000.487 158.919,999.304 142.869,999.553Z" style="fill:rgb(51,0,153);"/>
    <path d="M1261.946,829.157C1261.921,830.629 1262.042,832.11 1261.872,833.572C1261.719,834.885 1260.844,842.382 1253.845,848.026C1250.439,850.773 1246.991,851.783 1246.34,851.974C1244.931,852.387 1243.464,852.581 1242.01,852.788C1240.886,852.948 1239.748,852.979 1238.617,853.075C1236.923,853.218 1236.941,853.314 1235.273,853.646C1198.513,860.981 1173.996,866.196 1173.5,866.288C1171.191,866.718 1145.955,871.274 1113.141,877.649C1107.621,878.721 1104.08,879.218 1081.348,883.301C1075.565,884.34 1073.851,884.475 1050.636,888.265C1046.559,888.931 1032.263,890.849 1005.265,894.994C999.114,895.939 978.929,898.827 950.342,903.481C936.975,905.657 885.9,913.346 824.804,926.07C811.649,928.81 760.883,938.595 703.463,955.212C696.577,957.205 677.855,962.226 644.08,973.87C624.95,980.465 614.45,984.868 608.296,987.199C595.319,992.113 590.057,994.522 583.342,997.208C570.391,1002.39 564.241,1005.356 557.988,1008.052C531.828,1019.336 515.361,1029.169 510.407,1031.85C481.708,1047.382 459.704,1063.472 451.994,1068.781C448.653,1071.081 448.798,1071.271 448.498,1071.455C447.375,1072.146 440.966,1076.089 432.2,1073.916C427.934,1072.858 424.997,1070.687 424.446,1070.28C420.785,1067.574 418.891,1064.366 418.533,1063.759C417.863,1062.624 414.075,1056.211 416.187,1047.452C417.214,1043.188 419.312,1040.26 419.708,1039.707C419.985,1039.32 420.058,1039.381 423.615,1035.216C426.758,1031.537 433.427,1024.224 434.291,1023.277C446.939,1009.407 460.42,995.68 475.828,981.912C475.961,981.794 487.404,971.813 503.881,959.672C511.809,953.831 522.288,946.525 528.155,942.868C536.64,937.579 548.782,930.397 555.74,926.768C566.936,920.929 576.065,916.597 579.944,914.763C580.246,914.621 604.94,903.481 631.461,894.011C650.15,887.337 666.933,882.023 679.32,878.263C679.761,878.129 695.523,873.383 718.123,867.476C752.766,858.421 784.421,851.571 806.755,847C806.769,846.997 829.148,842.49 861.581,836.956C909.094,828.847 941.622,824.548 948.604,823.626C980.03,819.473 996.243,817.687 1000.393,817.23C1018.525,815.232 1033.138,813.757 1038.742,813.192C1042.638,812.8 1070.091,810.775 1070.47,810.755C1078.699,810.327 1102.339,809.254 1103.32,809.228C1119.024,808.823 1165.322,808.127 1168.369,808.176C1208.045,808.813 1233.295,809.57 1234.085,809.569C1234.425,809.569 1234.421,809.54 1238.315,809.211C1247.303,808.451 1253.222,813.447 1254.244,814.31C1259.303,818.58 1260.849,823.853 1261.131,824.818L1261.946,829.157Z" style="fill:rgb(51,0,153);"/>
    <path d="M1358.179,618.33C1350.23,620.213 1337.008,625.54 1322.681,634.987C1305.559,646.278 1292.638,659.78 1292.585,659.834C1289.709,662.75 1289.375,663.113 1282.415,670.869C1276.564,677.39 1273.719,681.336 1269.811,686.331C1263.736,694.096 1260.581,699.219 1257.466,703.859C1245.412,721.818 1239.401,736.883 1237.122,741.904C1225.533,767.438 1221.161,789.562 1219.824,795.369C1219.329,797.516 1219.7,797.579 1219.143,799.713C1218.809,800.991 1216.905,808.283 1209.135,812.845C1205.354,815.065 1201.769,815.56 1201.094,815.653C1196.622,816.271 1193.002,815.293 1192.324,815.109C1191.05,814.765 1183.817,812.809 1179.234,805.063C1177.003,801.292 1176.482,797.732 1176.383,797.06C1176.316,796.6 1176.419,796.594 1176.069,791.267C1174.219,763.122 1177.071,739.326 1177.608,734.843C1178.891,724.141 1179.912,719.731 1180.391,717.443C1184.997,695.437 1191.145,678.887 1194.946,669.459C1194.963,669.418 1197.499,663.423 1201.314,655.798C1205.933,646.566 1208.791,641.925 1209.509,640.758C1218.318,626.449 1225.006,618.249 1226.508,616.408C1246.259,592.193 1264.42,578.49 1270.288,574.087C1295.246,555.362 1315.227,547.663 1322.318,545.035C1365.867,528.899 1387.763,540.763 1392.98,543.552C1405.89,550.451 1420.701,564.413 1444.092,594.409C1449.945,601.914 1458.429,613.821 1459.647,615.53C1481.718,646.5 1500.979,677.446 1507.876,688.588C1507.953,688.711 1515.396,700.879 1524.818,717.092C1527.859,722.325 1537.204,738.204 1552.836,767.973C1553.367,768.984 1562.978,788.619 1565.209,793.707C1566.167,795.892 1573.766,813.215 1576.81,821.178C1586.969,847.748 1592.437,865.245 1594.815,873.011C1594.824,873.04 1598.658,886.552 1601.681,901.331C1606.088,922.876 1606.074,933.733 1606.2,935.057C1606.225,935.315 1606.44,936.517 1606.755,939.582C1606.892,940.916 1607.679,948.564 1601.9,955.623C1597.707,960.746 1592.457,962.371 1591.497,962.668C1590.205,963.068 1582.731,965.381 1574.669,961.029C1566.763,956.76 1564.521,949.549 1564.128,948.286C1563.077,944.906 1563.413,944.837 1562.919,941.331C1562.919,941.329 1561.725,937.352 1559.032,930.932C1552.071,914.34 1541.79,897.174 1540.736,895.222C1528.125,871.872 1516.184,853.591 1513.089,848.448C1504.813,834.697 1501.72,830.14 1498.298,824.417C1490.117,810.738 1489.929,810.857 1484.219,801.197C1482.398,798.116 1475.87,787.071 1460.97,762.976C1460.212,761.75 1454.602,752.482 1436.125,723.907C1416.436,693.459 1397.513,666.525 1381.814,646.395C1379.834,643.857 1367.475,627.654 1358.179,618.33Z" style="fill:rgb(51,0,153);"/>
    <path d="M288.92,1997.088C283.014,1994.679 276.653,1993.227 270.282,1993.782C239.096,1996.498 207.931,2041.441 189.893,2060.71C182.064,2069.073 168.146,2083.015 147.591,2083.24C129.716,2083.435 108.233,2072.404 102.143,2043.631C101.796,2041.991 99.174,2031.562 100.134,2004.042C100.649,1989.298 102.599,1958.873 113.711,1918.317C113.759,1918.141 115.832,1910.876 118.963,1901.627C124.172,1886.237 128.058,1877.346 128.96,1875.28C136.011,1859.146 143.7,1844.549 148.787,1836.033C166.488,1806.4 184.475,1785.184 197.506,1771.434C197.639,1771.293 204.042,1764.64 212.998,1756.608C240.467,1731.975 265.804,1717.526 282.292,1709.281C283.685,1708.584 288.333,1706.433 288.538,1706.362C289.791,1705.932 296.938,1703.478 305.061,1707.298C309.015,1709.158 311.42,1711.803 311.875,1712.303C312.787,1713.307 318.054,1719.101 317.529,1728.283C317.014,1737.269 311.404,1742.31 310.421,1743.193C308.454,1744.961 284.711,1760.136 259.804,1790.172C253.207,1798.128 248.952,1804.048 242.494,1813.293C223.039,1841.143 213.301,1865.72 210.048,1873.289C203.496,1888.53 200.026,1899.688 197.295,1908.076C192.95,1921.424 190.667,1931.06 188.228,1941.461C187.979,1942.521 187.57,1944.254 187.062,1946.575C196.883,1938.59 207.747,1931.233 219.652,1925.449C241.929,1914.625 289.646,1898.637 345.969,1936.319C348.012,1937.687 358.57,1944.75 370.061,1955.4C382.814,1967.219 389.378,1987.873 377.659,2010.187C368.777,2027.097 348.087,2047.866 333.364,2076.903C314.181,2114.732 319.58,2139.814 326.122,2156.318C333.331,2174.504 345.48,2188.248 351.553,2195.131C354.836,2198.853 358.955,2203.189 362.861,2206.932C368.187,2200.005 375.09,2191.235 383.373,2182.895C399.04,2167.117 416.283,2155.765 436.327,2147.617C441.335,2145.581 447.924,2143.607 448.946,2143.3C478.036,2134.582 507.997,2133.674 533.198,2135.145C534.769,2135.237 539.549,2135.09 539.983,2135.133C541.444,2135.279 542.927,2135.283 544.366,2135.574C545.663,2135.836 553.063,2137.333 558.104,2144.774C560.558,2148.396 561.279,2151.916 561.415,2152.581C563.256,2161.575 558.89,2168.053 558.134,2169.175C553.111,2176.627 545.715,2178.146 544.419,2178.412C541.261,2179.06 541.236,2178.852 538.014,2178.875C535.542,2178.893 535.54,2178.818 533.084,2179.094C488.616,2184.087 468.021,2196.371 459.352,2201.521C432.243,2217.626 424.121,2238.901 413.312,2255.491C407.88,2263.828 395.115,2282.778 370.768,2285.697C347.688,2288.465 328.642,2274.859 318.572,2266.957C313.31,2262.829 300.944,2252.429 290.338,2240.754C253.751,2200.479 243.502,2162.448 241.626,2133.846C238.981,2093.516 252.276,2059.315 265.34,2034.709C272.935,2020.405 281.518,2007.513 288.92,1997.088Z" style="fill:rgb(51,0,153);"/>
    <path d="M1864.258,1580.611C1865.332,1581.617 1866.511,1582.522 1867.48,1583.629C1868.351,1584.624 1873.322,1590.304 1872.808,1599.281C1872.558,1603.649 1870.993,1606.883 1870.697,1607.494C1869.333,1610.314 1869.178,1610.225 1867.279,1612.714C1864.76,1616.015 1864.734,1615.991 1863.983,1617.134C1844.533,1646.748 1826.119,1673.059 1808.04,1697.555C1807.964,1697.659 1793.672,1716.55 1774.395,1740.02C1764.996,1751.464 1751.147,1767.9 1742.582,1777.381C1734.016,1786.864 1718.375,1803.827 1707.935,1814.241C1696.77,1825.378 1682.905,1838.736 1674.839,1846.019C1635.859,1881.211 1606.889,1902.903 1594.055,1912.418C1564.978,1933.975 1538.55,1951.405 1510.347,1968.06C1459.71,1997.963 1413.801,2018.763 1375.196,2033.655C1354.605,2041.598 1333.374,2048.36 1329.701,2049.53C1307.694,2056.538 1245.003,2075.775 1164.501,2085.539C1114.525,2091.6 1076.47,2092.413 1068.14,2092.63C1046.61,2093.192 1026.287,2093.087 1019.209,2092.89C1004.721,2092.487 984.849,2091.638 974.981,2090.888C955.542,2089.411 936.415,2087.532 931.051,2086.886C894.559,2082.49 863.325,2077.509 846.283,2074.714C845.094,2074.519 824.529,2070.769 801.124,2066.088C784.331,2062.729 766.003,2058.948 741.298,2053.608C740.611,2053.46 734.089,2052.051 732.757,2051.566C731.511,2051.113 724.397,2048.527 720.414,2040.505C718.475,2036.6 718.236,2033.062 718.191,2032.39C718.099,2031.028 717.569,2023.182 723.728,2016.247C729.73,2009.49 737.244,2009.145 738.561,2009.085C739.624,2009.036 792.801,2012.511 850.404,2013.908C858.549,2014.105 891.117,2015.801 937.454,2015.672C938.735,2015.668 956.003,2016.003 979.533,2015.669C984.014,2015.606 998.144,2015.78 1021.386,2015.119C1025.736,2014.996 1056.644,2014.941 1102.539,2011.267C1106.609,2010.942 1141.945,2008.353 1187.395,2000.779C1263.495,1988.098 1319.382,1968.528 1356.683,1953.916C1428.174,1925.912 1482.696,1892.769 1520.357,1867.806C1520.42,1867.764 1554.81,1845.488 1597.802,1811.029C1612.999,1798.849 1620.921,1791.92 1631.09,1783.359C1647.052,1769.922 1655.482,1762.174 1663.899,1754.791C1680.698,1740.055 1689.729,1731.432 1699.663,1722.31C1734.722,1690.118 1759.142,1664.305 1765.004,1658.428C1792.591,1630.772 1814.895,1606.374 1829.183,1590.418C1829.914,1589.602 1829.908,1589.599 1833.611,1584.742C1839.08,1577.569 1846.756,1576.534 1848.082,1576.356C1854.643,1575.471 1859.589,1577.865 1860.494,1578.303L1864.258,1580.611Z" style="fill:rgb(51,0,153);"/>
    <path d="M1578.98,830.757C1559.797,843.44 1533.926,838.163 1521.243,818.98C1508.56,799.797 1513.837,773.926 1533.02,761.243C1688.144,658.682 2004.061,492.906 2495.702,688.279C2517.073,696.771 2527.529,721.017 2519.036,742.387C2510.544,763.758 2486.298,774.214 2464.928,765.721C2012.555,585.953 1721.714,736.388 1578.98,830.757Z" style="fill:rgb(51,0,153);"/>
    <path d="M1380,567C1466.377,506.041 1578,490 1578,490" style="fill:none;stroke:rgb(51,0,153);stroke-width:41.67px;"/>
    <path d="M1710,1293C2009.442,1300.537 2370.502,1422.029 2480.315,1410" style="fill:none;stroke:rgb(51,0,153);stroke-width:83.33px;"/>
    <path d="M1816.628,105.551C1803.629,86.58 1808.478,60.626 1827.449,47.628C1846.42,34.629 1872.374,39.478 1885.372,58.449C1940.819,139.374 2030.225,230.074 2135.009,279.081C2233.682,325.23 2346.63,333.028 2455.743,253.35C2474.315,239.788 2500.403,243.856 2513.965,262.428C2527.527,281 2523.459,307.088 2504.887,320.65C2367.007,421.335 2224.394,412.883 2099.705,354.567C1981.128,299.109 1879.373,197.128 1816.628,105.551Z" style="fill:rgb(51,0,153);"/>
    <path d="M1071.304,338.685C1049.401,331.678 1037.308,308.207 1044.315,286.304C1051.322,264.401 1074.793,252.308 1096.696,259.315C1310.079,327.581 1419.927,386.606 1495.333,421.048C1536.778,439.977 1565.213,451.421 1598.333,448.495C1624.807,446.156 1654.941,433.109 1693.371,417.307C1797.535,374.475 1952.505,309.132 2218.757,313.971C2241.75,314.388 2260.078,333.395 2259.66,356.387C2259.242,379.38 2240.236,397.708 2217.243,397.29C1967.791,392.757 1822.654,454.249 1725.063,494.379C1677.024,514.132 1638.761,528.581 1605.667,531.505C1559.359,535.596 1518.66,523.316 1460.711,496.848C1387.039,463.199 1279.779,405.381 1071.304,338.685Z" style="fill:rgb(51,0,153);"/>
    <path d="M1005.647,2056.81C998.09,2035.091 1009.589,2011.322 1031.308,2003.765C1053.027,1996.208 1076.796,2007.707 1084.353,2029.426C1157.775,2240.453 1181.499,2386.139 1181.667,2480.241C1181.708,2503.237 1163.071,2521.941 1140.074,2521.982C1117.078,2522.023 1098.374,2503.386 1098.333,2480.389C1098.176,2391.918 1074.676,2255.21 1005.647,2056.81Z" style="fill:rgb(51,0,153);"/>
    <path d="M445.556,2190.008C445.066,2189.552 442.253,2186.937 442.087,2182.398C442.036,2181 442.249,2179.564 442.734,2178.252C443.721,2175.585 443.935,2175.682 445.877,2173.608C447.161,2172.236 447.181,2172.258 448.38,2170.81C460.238,2156.49 478.361,2135.585 485.869,2127.407C494.741,2117.742 512.719,2098.425 523.479,2087.541C539.011,2071.83 542.994,2068.122 548.472,2062.89C551.757,2059.753 557.503,2054.114 576.612,2036.903C612.656,2004.438 643.851,1979.125 663.495,1963.529C697.214,1936.759 720.816,1919.709 739.714,1906.433C782.541,1876.347 811.555,1859.023 823.538,1851.896C827.109,1849.772 843.796,1839.758 868.833,1826.531C870.123,1825.849 884.956,1818.3 893.614,1814.333C908.315,1807.598 915.145,1804.815 917.041,1804.043C936.802,1795.993 951.773,1790.752 959.209,1788.196C959.293,1788.167 972.665,1783.698 989.665,1779.015C992.067,1778.353 1006.313,1774.428 1019.904,1771.514C1022.048,1771.054 1022.057,1770.922 1024.237,1771.168C1024.892,1771.242 1028.671,1771.669 1031.47,1775.111C1031.899,1775.638 1034.359,1778.665 1033.869,1783.261C1033.799,1783.916 1033.394,1787.713 1029.926,1790.494C1029.554,1790.793 1028.634,1791.53 1024.549,1793.078C997.694,1803.254 979.102,1812.519 967.588,1818.016C948.03,1827.354 934.788,1834.718 925.999,1839.405C921.285,1841.917 921.292,1841.925 902.847,1852.087C901.23,1852.978 900.233,1853.527 882.727,1863.387C858.16,1877.224 817.474,1901.602 771.809,1933.349C767.263,1936.509 746.044,1951.261 715.806,1973.989C711.57,1977.173 678.945,2001.436 630.456,2041.925C624.567,2046.843 605.662,2062.75 588.686,2077.527C583.282,2082.23 583.289,2082.233 577.858,2086.9C568.518,2094.926 568.576,2094.986 559.209,2102.986C549.523,2111.259 549.592,2111.331 539.895,2119.588C518.643,2137.686 508.107,2147.278 500.905,2153.508C479.903,2171.674 466.55,2183.992 463.565,2186.747C463.088,2187.187 461.031,2189.429 461.001,2189.452C459.84,2190.305 458.797,2191.369 457.485,2191.966C456.885,2192.239 453.431,2193.812 449.252,2192.266C447.194,2191.505 447.163,2191.502 445.556,2190.008Z" style="fill:rgb(51,0,153);"/>
    <path d="M711.15,2374.932C710.481,2374.942 706.641,2374.994 703.385,2371.827C702.383,2370.852 701.544,2369.667 700.989,2368.383C699.887,2365.838 700.056,2365.768 700.059,2362.994C700.059,2362.64 700.104,2362.642 700.119,2358.565C700.184,2340.432 706.367,2319.638 712.684,2302.593C712.837,2302.182 716.006,2293.793 721.597,2281.521C727.594,2268.358 733.471,2257.064 736.247,2251.78C736.31,2251.66 740.731,2243.395 747.432,2231.827C753.957,2220.563 762.564,2207.088 766.68,2200.89C787.382,2169.721 821.433,2121.423 883.036,2048.774C892.615,2037.477 906.737,2021.558 908.82,2019.211C945.719,1977.616 971.093,1951.92 975.111,1947.808C983.762,1938.955 995.903,1926.602 1016.86,1906.65C1018.155,1905.417 1031.653,1893.025 1036.137,1889.135C1049.77,1877.309 1055.482,1872.711 1057.201,1871.327C1070.622,1860.522 1082.41,1851.544 1092.613,1844.154C1092.673,1844.111 1107.42,1833.542 1123.244,1824.15C1137.321,1815.795 1145.921,1812.104 1149.122,1810.774C1151.149,1809.932 1151.136,1809.805 1153.33,1809.665C1153.988,1809.622 1157.78,1809.379 1161.138,1812.291C1161.651,1812.736 1164.605,1815.297 1164.913,1819.893C1164.957,1820.55 1165.211,1824.345 1162.286,1827.701C1161.999,1828.031 1161.272,1828.864 1157.891,1830.95C1139.565,1842.256 1121.235,1859.41 1109.284,1870.339C1094.123,1884.205 1083.414,1895.166 1074.976,1903.492C1066.301,1912.051 1066.392,1912.139 1057.749,1920.731C1048.673,1929.754 1048.426,1930.163 1041.82,1936.744C1020.45,1958.035 983.734,1996.081 948.386,2035.604C944.652,2039.78 927.023,2059.491 902.446,2088.45C899.696,2091.69 869.131,2127.38 833.789,2173.772C833.643,2173.963 816.399,2196.536 800.801,2218.627C796.981,2224.037 796.728,2224.47 794.717,2227.298C790.402,2233.369 790.397,2233.362 778.157,2251.195C776.93,2252.982 772.284,2259.753 763.156,2273.764C749.636,2294.517 742.756,2307.645 737.815,2317.184C725.396,2341.161 722.807,2354.446 721.989,2360.774C721.906,2361.419 721.93,2363.604 721.932,2363.85C721.94,2364.519 721.982,2368.372 718.827,2371.615C715.66,2374.87 711.819,2374.923 711.15,2374.932Z" style="fill:rgb(51,0,153);"/>
    <path d="M2321.632,1489.453C2321.788,1490.103 2322.683,1493.839 2320.308,1497.71C2319.577,1498.902 2318.605,1499.981 2317.475,1500.804C2316.31,1501.653 2314.899,1502.105 2313.557,1502.63C2312.94,1502.871 2312.268,1502.939 2311.624,1503.093C2308.804,1503.768 2308.808,1503.773 2306.023,1504.586C2274.742,1513.718 2238.345,1524.211 2238.127,1524.272C2234.948,1525.158 2173.319,1542.098 2166.642,1543.853C2132.215,1552.901 2132.21,1552.874 2122.279,1555.362C2102.248,1560.379 2102.256,1560.399 2082.173,1565.201C2038.326,1575.686 1995.472,1585.838 1901.643,1606.936C1860.45,1616.199 1837.776,1621.269 1775.511,1634.608C1712.825,1648.037 1683.78,1653.917 1650.363,1660.619C1634.526,1663.796 1597.169,1671.001 1590.213,1672.25C1561.485,1677.407 1561.491,1677.417 1532.672,1682.025C1521.832,1683.759 1474.968,1690.499 1458.969,1692.443C1452.786,1693.194 1410.911,1698.283 1381.562,1700.821C1379.376,1701.01 1379.35,1701.097 1377.227,1700.54C1376.589,1700.373 1372.909,1699.407 1370.632,1695.603C1370.282,1695.019 1368.28,1691.675 1369.421,1687.185C1369.583,1686.546 1370.526,1682.838 1374.358,1680.59C1374.77,1680.348 1375.897,1679.687 1380.071,1678.844C1389.5,1676.939 1412.422,1672.434 1457.588,1662.039C1463.01,1660.791 1479.649,1657.306 1521.718,1647.554C1522.674,1647.332 1533.066,1645.063 1551.684,1640.872C1557.975,1639.456 1559.277,1639.249 1582.654,1634.164C1586.951,1633.229 1586.968,1633.312 1636.444,1622.834L1752.441,1598.216L1902.475,1565.576L2090.012,1524.221C2092.998,1523.563 2095.789,1522.999 2121.673,1517.518C2125.153,1516.781 2156.718,1510.371 2165.826,1508.611C2216.94,1498.736 2227.678,1496.549 2234.129,1495.365L2300.875,1483.026C2304.689,1482.314 2304.676,1482.272 2308.453,1481.368C2309.103,1481.212 2312.839,1480.317 2316.71,1482.692C2320.582,1485.067 2321.477,1488.802 2321.632,1489.453Z" style="fill:rgb(51,0,153);"/>
    <path d="M2491.229,1689.353C2491.269,1690.021 2491.496,1693.855 2488.48,1697.251C2487.551,1698.297 2486.406,1699.189 2485.149,1699.802C2483.854,1700.433 2482.386,1700.635 2480.972,1700.914C2480.289,1701.048 2479.582,1700.996 2478.887,1701.037C2475.245,1701.252 2475.252,1701.302 2472.821,1701.567C2442.515,1704.869 2404.989,1708.893 2402.17,1709.159C2339.58,1715.065 2337.884,1715.212 2332.29,1715.695C2330.777,1715.826 2296.821,1718.635 2296.039,1718.695C2295.167,1718.761 2263.223,1721.047 2262.206,1721.115C2260.727,1721.215 2216.119,1723.939 2209.992,1724.3C2204.009,1724.652 2153.062,1727.513 2147.31,1727.818C2132.784,1728.59 2034.351,1733.627 1994.026,1735.358C1896.141,1739.559 1852.718,1740.915 1840.427,1741.299C1811.824,1742.193 1793.938,1742.737 1751.071,1743.597C1746.464,1743.69 1721.719,1743.948 1711.08,1743.885C1681.953,1743.711 1681.957,1743.719 1652.837,1742.96C1615.837,1741.995 1608.736,1741.494 1607.569,1741.438C1601.813,1741.16 1562.035,1739.242 1535.669,1736.928C1533.483,1736.737 1533.441,1736.821 1531.446,1735.907C1530.847,1735.632 1527.389,1734.048 1525.804,1729.904C1525.561,1729.269 1524.167,1725.626 1526.067,1721.409C1526.337,1720.808 1527.906,1717.326 1532.069,1715.767C1532.516,1715.599 1533.75,1715.137 1537.981,1715.023C1567.471,1714.23 1584.451,1713.345 1617.737,1711.412L1714.519,1706.178C1716.106,1706.093 1723.05,1705.828 1745.464,1704.795C1748.497,1704.655 1762.798,1704.191 1796.102,1702.842L1922.442,1697.865L2256.697,1683.318C2262.56,1683.066 2262.559,1683.096 2289.651,1682.161C2296.108,1681.938 2327.036,1681.158 2335.514,1681.02C2380.169,1680.294 2401.297,1679.892 2401.862,1679.888L2471.521,1679.394C2473.901,1679.374 2473.899,1679.427 2477.597,1679.209C2479.652,1679.087 2479.652,1679.082 2479.678,1679.085C2481.104,1679.288 2482.596,1679.222 2483.957,1679.696C2484.579,1679.913 2488.163,1681.162 2490.117,1685.166C2491.079,1687.139 2491.099,1687.162 2491.229,1689.353Z" style="fill:rgb(51,0,153);"/>
</svg>
