<?xml version="1.0" encoding="UTF-8" standalone="no"?>
<!DOCTYPE svg PUBLIC "-//W3C//DTD SVG 1.1//EN" "http://www.w3.org/Graphics/SVG/1.1/DTD/svg11.dtd">
<svg width="100%" height="100%" viewBox="0 0 300 300" version="1.1" xmlns="http://www.w3.org/2000/svg" xmlns:xlink="http://www.w3.org/1999/xlink" xml:space="preserve" xmlns:serif="http://www.serif.com/" style="fill-rule:evenodd;clip-rule:evenodd;stroke-linejoin:round;stroke-miterlimit:2;">
    <rect x="-4" y="-3" width="308" height="308" style="fill:rgb(255,255,204);"/>
    <rect x="110" y="177" width="57" height="86" style="fill:rgb(0,187,0);"/>
    <g transform="matrix(0.058442,0,0,0.175325,142.233766,199.525974)">
        <rect x="-4" y="-3" width="308" height="308" style="fill:rgb(255,255,204);"/>
    </g>
    <g transform="matrix(0.13961,0,0,0.051948,117.558442,237.155844)">
        <rect x="-4" y="-3" width="308" height="308" style="fill:rgb(255,255,204);"/>
    </g>
    <g transform="matrix(1,0,0,1,-285.681409,0)">
        <path d="M285.681,77.696C304.617,85.31 318,103.854 318,125.5C318,147.146 304.617,165.69 285.681,173.304L285.681,77.696Z" style="fill:rgb(51,255,153);"/>
    </g>
    <g transform="matrix(1,0,0,1,14.318591,0)">
        <path d="M285.681,173.304C279.752,175.688 273.278,177 266.5,177C238.076,177 215,153.924 215,125.5C215,97.076 238.076,74 266.5,74C273.278,74 279.752,75.312 285.681,77.696L285.681,173.304Z" style="fill:rgb(51,255,153);"/>
    </g>
    <circle cx="58" cy="198" r="26" style="fill:rgb(51,255,153);"/>
    <rect x="241" y="-15" width="18" height="27" style="fill:rgb(51,153,102);"/>
    <g transform="matrix(1,0,0,3.592593,0,267.888889)">
        <rect x="241" y="-15" width="18" height="27" style="fill:rgb(51,153,102);"/>
    </g>
    <circle cx="59.5" cy="105.5" r="17.5" style="fill:rgb(255,0,51);"/>
    <g transform="matrix(1,0,0,1,148,80)">
        <circle cx="59.5" cy="105.5" r="17.5" style="fill:rgb(255,0,51);"/>
    </g>
    <circle cx="172" cy="107" r="26" style="fill:rgb(255,255,0);"/>
    <g transform="matrix(0.095779,0,0,0.095779,172.383117,107.287338)">
        <rect x="-4" y="-3" width="308" height="308" style="fill:rgb(255,255,204);"/>
    </g>
    <g transform="matrix(0.095779,0,0,0.095779,28.883117,198.287338)">
        <rect x="-4" y="-3" width="308" height="308" style="fill:rgb(255,255,204);"/>
    </g>
    <g transform="matrix(0.095779,0,0,0.095779,10.883117,230.287338)">
        <rect x="-4" y="-3" width="308" height="308" style="fill:rgb(255,102,204);"/>
    </g>
    <rect x="45" y="53" width="89" height="19" style="fill:rgb(204,204,204);"/>
    <g transform="matrix(0,0.595506,-1,0,168,78.702247)">
        <rect x="45" y="53" width="89" height="19" style="fill:rgb(255,102,51);"/>
    </g>
    <path d="M211.5,18L260,64L163,64L211.5,18Z" style="fill:rgb(255,102,204);"/>
    <g transform="matrix(1,0,0,1,0,-24.137519)">
        <path d="M39.201,24.138L111.06,24.138L75.13,64L39.201,24.138Z" style="fill:rgb(204,204,255);"/>
    </g>
    <g transform="matrix(1,0,0,1,0,275.862481)">
        <path d="M111.06,24.138L39.201,24.138L28.261,12L122,12L111.06,24.138Z" style="fill:rgb(204,204,255);"/>
    </g>
</svg>
