<?xml version="1.0" encoding="UTF-8" standalone="no"?>
<!DOCTYPE svg PUBLIC "-//W3C//DTD SVG 1.1//EN" "http://www.w3.org/Graphics/SVG/1.1/DTD/svg11.dtd">
<svg width="100%" height="100%" viewBox="0 0 2481 2481" version="1.1" xmlns="http://www.w3.org/2000/svg" xmlns:xlink="http://www.w3.org/1999/xlink" xml:space="preserve" xmlns:serif="http://www.serif.com/" style="fill-rule:evenodd;clip-rule:evenodd;stroke-linecap:round;stroke-linejoin:round;stroke-miterlimit:1.5;">
    <g transform="matrix(2.265128,0,0,1.847633,-702.189624,-622.652367)">
        <rect x="310" y="337" width="1095" height="1352" style="fill:rgb(75,153,255);"/>
    </g>
    <path d="M0,744L355,724L673,613L919,450L1074,297L1537,500L1364,570L1240.157,710L1182.157,838L650,923L460,1051L176,953L92,1009L153,1320L184,1432.5L-58,1415L-177,707L0,744Z" style="fill:rgb(102,102,204);"/>
    <path d="M1594,946L1709,1293L2232,1366.342L2575,1439.684L2578,743.359L2323,660L1965,657L1618,743.359L1537,796L1594,946Z" style="fill:rgb(102,102,204);"/>
    <g transform="matrix(1,0,0,1,0,2480.314961)">
        <path d="M-6.982,768.078C-29.653,764.224 -44.931,742.689 -41.078,720.018C-37.224,697.347 -15.689,682.069 6.982,685.922C224.654,722.92 576.513,652.223 823.33,476.58C983.041,362.925 1098.838,204.52 1098.838,0C1098.838,-22.996 1117.508,-41.667 1140.504,-41.667C1163.501,-41.667 1182.171,-22.996 1182.171,0C1182.171,232.874 1053.499,415.065 871.647,544.476C606.124,733.431 227.188,807.88 -6.982,768.078Z" style="fill:rgb(51,0,153);"/>
    </g>
    <g transform="matrix(1,0,0,1,34,32)">
        <circle cx="737.5" cy="1552.5" r="38.5" style="fill:rgb(51,0,153);stroke:rgb(51,0,153);stroke-width:83.33px;"/>
    </g>
    <g transform="matrix(1,0,0,1,541.15748,-120)">
        <circle cx="737.5" cy="1552.5" r="38.5" style="fill:rgb(51,0,153);stroke:rgb(51,0,153);stroke-width:83.33px;"/>
    </g>
    <g transform="matrix(1.506494,0,0,1.506494,71.118519,-618.831169)">
        <circle cx="737.5" cy="1552.5" r="38.5" style="fill:rgb(51,0,153);stroke:rgb(51,0,153);stroke-width:55.32px;"/>
    </g>
    <g transform="matrix(1,0,0,1,-2480.314961,0)">
        <path d="M1578.98,830.757C1559.797,843.44 1533.926,838.163 1521.243,818.98C1508.56,799.797 1513.837,773.926 1533.02,761.243C1686.839,659.545 2051.512,610.983 2487.377,685.936C2510.04,689.833 2525.276,711.398 2521.379,734.062C2517.481,756.725 2495.917,771.961 2473.253,768.064C2065.096,697.875 1723.021,735.524 1578.98,830.757Z" style="fill:rgb(51,0,153);"/>
    </g>
    <g transform="matrix(1,0,0,1,-2480.314961,0)">
        <path d="M1710,1293C2009.442,1300.537 2556.502,1451.029 2666.315,1439" style="fill:none;stroke:rgb(51,0,153);stroke-width:83.33px;"/>
    </g>
    <g transform="matrix(1,0,0,1,-2480.314961,0)">
        <path d="M1816.628,105.551C1803.629,86.58 1808.478,60.626 1827.449,47.628C1846.42,34.629 1872.374,39.478 1885.372,58.449C1940.403,138.767 2044.335,222.311 2163,265.131C2277.877,306.584 2407.412,309.647 2518.743,228.35C2537.315,214.788 2563.403,218.856 2576.965,237.428C2590.527,256 2586.459,282.088 2567.887,295.65C2432.223,394.717 2274.701,394.03 2134.715,343.517C1998.518,294.371 1879.789,197.735 1816.628,105.551Z" style="fill:rgb(51,0,153);"/>
    </g>
    <g transform="matrix(1,0,0,1,-2480.314961,0)">
        <path d="M1535.356,1746.823C1523.863,1746.468 1514.821,1736.849 1515.177,1725.356C1515.532,1713.863 1525.151,1704.821 1536.644,1705.177C1760.178,1712.088 2479.076,1669.204 2479.076,1669.204C2490.554,1668.52 2500.427,1677.283 2501.111,1688.761C2501.795,1700.239 2493.032,1710.112 2481.554,1710.796C2481.554,1710.796 1759.783,1753.762 1535.356,1746.823Z" style="fill:rgb(51,0,153);"/>
    </g>
    <path d="M-6.982,768.078C-29.653,764.224 -44.931,742.689 -41.078,720.018C-37.224,697.347 -15.689,682.069 6.982,685.922C224.649,722.92 576.323,652.225 822.994,476.586C982.615,362.931 1098.333,204.522 1098.333,0C1098.333,-22.996 1117.004,-41.667 1140,-41.667C1162.996,-41.667 1181.667,-22.996 1181.667,0C1181.667,232.873 1053.077,415.059 871.33,544.47C605.95,733.429 227.193,807.881 -6.982,768.078Z" style="fill:rgb(51,0,153);"/>
    <path d="M197.687,1341.309C204.691,1363.213 192.595,1386.683 170.691,1393.687C148.787,1400.691 125.317,1388.595 118.313,1366.691C50.304,1154.013 61.399,960.655 61.399,960.655C62.417,942.608 74.954,927.275 92.439,922.694C92.439,922.694 246.602,878.025 511.589,1048.988C530.913,1061.455 536.479,1087.265 524.012,1106.589C511.545,1125.913 485.735,1131.479 466.411,1119.012C305.716,1015.335 194.446,1000.761 144.062,1000.877C144.536,1062.671 151.6,1197.185 197.687,1341.309Z" style="fill:rgb(51,0,153);"/>
    <path d="M465.3,1083.444C448.265,1098.892 421.892,1097.603 406.444,1080.568C390.996,1063.533 392.285,1037.161 409.32,1021.713C509.332,931.018 638.982,839.882 1236.656,789.481C1259.571,787.548 1279.744,804.584 1281.677,827.499C1283.609,850.414 1266.574,870.587 1243.659,872.519C682.764,919.819 559.157,998.331 465.3,1083.444Z" style="fill:rgb(51,0,153);"/>
    <path d="M1357.802,620.552C1349.515,623.381 1333.398,629.472 1321.91,637.497C1284.143,663.88 1244.612,715.588 1239.587,796.58C1238.163,819.533 1218.372,837.011 1195.42,835.587C1172.467,834.163 1154.989,814.372 1156.413,791.42C1164.685,658.114 1242.411,582.825 1301.365,552.813C1335.115,535.632 1365.386,533.41 1381.667,537.722C1388.94,539.648 1399.837,544.887 1411.757,555.928C1425.021,568.214 1443.904,591.145 1464.833,620.512C1531.487,714.037 1620.202,874.913 1626.461,937.653C1628.744,960.536 1612.019,980.967 1589.136,983.25C1566.253,985.533 1545.822,968.808 1543.539,945.925C1541.499,925.476 1527.373,892.777 1508.929,855.552C1477.948,793.022 1433.462,720.08 1396.971,668.876C1383.501,649.977 1366.082,629.873 1357.802,620.552Z" style="fill:rgb(51,0,153);"/>
    <path d="M190.509,1942.479C214.029,1924.604 241.681,1911.716 272.371,1911.496C301.667,1911.286 334.998,1921.747 370.695,1954.147C379.603,1962.232 384.932,1972.684 385.124,1986.286C385.229,1993.743 381.226,2009.537 367.721,2027.983C352.17,2049.223 314.272,2089.389 323.678,2138.838C327.293,2157.844 338.584,2177.536 359.85,2198.148C365.044,2190.689 371.09,2182.595 378.603,2174.485C404.98,2146.01 448.706,2115.446 539.949,2115.333C562.945,2115.305 581.638,2133.952 581.667,2156.949C581.695,2179.945 563.048,2198.638 540.051,2198.667C461.067,2198.764 437.92,2231.36 423.746,2252.352C416.759,2262.7 410.316,2271.05 403.874,2276.707C394.584,2284.867 384.519,2289.486 373.468,2291.082C358.575,2293.232 336.397,2290.119 306.669,2262.553C264.52,2223.468 246.36,2184.552 240.869,2148.931C232.619,2095.413 253.778,2047.43 276.771,2012.068C279.921,2007.224 283.37,2002.175 286.742,1997.366C282.227,1995.716 277.841,1994.87 273.525,1994.828C253.968,1994.636 238.867,2009.024 225.916,2022.059C211.68,2036.388 200.166,2051.526 191.404,2061.069C168.782,2085.71 144.429,2086.422 132.28,2082.253C121.692,2078.619 99.534,2065.401 98.349,2022.141C95.435,1915.738 148.156,1766.189 274.408,1691.179C294.179,1679.433 319.766,1685.947 331.512,1705.717C343.258,1725.488 336.744,1751.075 316.973,1762.821C247.279,1804.229 207.061,1875.245 190.509,1942.479Z" style="fill:rgb(51,0,153);"/>
    <path d="M738.094,2072.623C715.122,2071.571 697.325,2052.067 698.377,2029.094C699.429,2006.122 718.933,1988.325 741.906,1989.377C1047.198,2003.354 1243.009,2024.634 1429.723,1933.65C1553.399,1873.383 1672.36,1763.771 1817.853,1572.753C1831.788,1554.459 1857.953,1550.919 1876.247,1564.853C1894.541,1578.788 1898.081,1604.953 1884.147,1623.247C1728.098,1828.122 1598.875,1943.923 1466.227,2008.562C1268.453,2104.936 1061.47,2087.428 738.094,2072.623Z" style="fill:rgb(51,0,153);"/>
    <path d="M1578.98,830.757C1559.797,843.44 1533.926,838.163 1521.243,818.98C1508.56,799.797 1513.837,773.926 1533.02,761.243C1688.144,658.682 2004.061,492.906 2495.702,688.279C2517.073,696.771 2527.529,721.017 2519.036,742.387C2510.544,763.758 2486.298,774.214 2464.928,765.721C2012.555,585.953 1721.714,736.388 1578.98,830.757Z" style="fill:rgb(51,0,153);"/>
    <path d="M1380,567C1466.377,506.041 1578,490 1578,490" style="fill:none;stroke:rgb(51,0,153);stroke-width:41.67px;"/>
    <path d="M1710,1293C2009.442,1300.537 2370.502,1422.029 2480.315,1410" style="fill:none;stroke:rgb(51,0,153);stroke-width:83.33px;"/>
    <path d="M1816.628,105.551C1803.629,86.58 1808.478,60.626 1827.449,47.628C1846.42,34.629 1872.374,39.478 1885.372,58.449C1940.819,139.374 2030.225,230.074 2135.009,279.081C2233.682,325.23 2346.63,333.028 2455.743,253.35C2474.315,239.788 2500.403,243.856 2513.965,262.428C2527.527,281 2523.459,307.088 2504.887,320.65C2367.007,421.335 2224.394,412.883 2099.705,354.567C1981.128,299.109 1879.373,197.128 1816.628,105.551Z" style="fill:rgb(51,0,153);"/>
    <path d="M1071.304,338.685C1049.401,331.678 1037.308,308.207 1044.315,286.304C1051.322,264.401 1074.793,252.308 1096.696,259.315C1310.079,327.581 1419.927,386.606 1495.333,421.048C1536.778,439.977 1565.213,451.421 1598.333,448.495C1624.807,446.156 1654.941,433.109 1693.371,417.307C1797.535,374.475 1952.505,309.132 2218.757,313.971C2241.75,314.388 2260.078,333.395 2259.66,356.387C2259.242,379.38 2240.236,397.708 2217.243,397.29C1967.791,392.757 1822.654,454.249 1725.063,494.379C1677.024,514.132 1638.761,528.581 1605.667,531.505C1559.359,535.596 1518.66,523.316 1460.711,496.848C1387.039,463.199 1279.779,405.381 1071.304,338.685Z" style="fill:rgb(51,0,153);"/>
    <path d="M1005.647,2056.81C998.09,2035.091 1009.589,2011.322 1031.308,2003.765C1053.027,1996.208 1076.796,2007.707 1084.353,2029.426C1157.775,2240.453 1181.499,2386.139 1181.667,2480.241C1181.708,2503.237 1163.071,2521.941 1140.074,2521.982C1117.078,2522.023 1098.374,2503.386 1098.333,2480.389C1098.176,2391.918 1074.676,2255.21 1005.647,2056.81Z" style="fill:rgb(51,0,153);"/>
    <path d="M1017.117,1762.015C1028.147,1758.768 1039.738,1765.087 1042.985,1776.117C1046.232,1787.147 1039.913,1798.738 1028.883,1801.985C758.991,1881.436 468.283,2196.158 468.283,2196.158C460.469,2204.593 447.277,2205.097 438.842,2197.283C430.407,2189.469 429.903,2176.277 437.717,2167.842C437.717,2167.842 738.527,1844.025 1017.117,1762.015Z" style="fill:rgb(51,0,153);"/>
    <path d="M1154,1820.559C1046.697,1873.842 709.118,2251.397 711,2364" style="fill:none;stroke:rgb(51,0,153);stroke-width:41.67px;"/>
    <path d="M1382.965,1710.621C1371.584,1712.258 1361.015,1704.347 1359.379,1692.965C1357.742,1681.584 1365.653,1671.015 1377.035,1669.379C1640.855,1631.44 2306.138,1471.742 2306.138,1471.742C2317.319,1469.059 2328.575,1475.958 2331.258,1487.138C2333.941,1498.319 2327.042,1509.575 2315.862,1512.258C2315.862,1512.258 1647.858,1672.528 1382.965,1710.621Z" style="fill:rgb(51,0,153);"/>
    <path d="M1535.356,1746.823C1523.863,1746.468 1514.821,1736.849 1515.177,1725.356C1515.532,1713.863 1525.151,1704.821 1536.644,1705.177C1760.178,1712.088 2479.076,1669.204 2479.076,1669.204C2490.554,1668.52 2500.427,1677.283 2501.111,1688.761C2501.795,1700.239 2493.032,1710.112 2481.554,1710.796C2481.554,1710.796 1759.783,1753.762 1535.356,1746.823Z" style="fill:rgb(51,0,153);"/>
</svg>
